<?xml version="1.0" encoding="UTF-8"?>
<!DOCTYPE svg PUBLIC "-//W3C//DTD SVG 1.1//EN" "http://www.w3.org/Graphics/SVG/1.1/DTD/svg11.dtd">
<svg xmlns="http://www.w3.org/2000/svg" version="1.1" width="190px" height="188px" style="shape-rendering:geometricPrecision; text-rendering:geometricPrecision; image-rendering:optimizeQuality; fill-rule:evenodd; clip-rule:evenodd" xmlns:xlink="http://www.w3.org/1999/xlink">
<g><path style="opacity:1" fill="#000000" d="M 8.5,-0.5 C 68.8333,-0.5 129.167,-0.5 189.5,-0.5C 189.5,62.1667 189.5,124.833 189.5,187.5C 129.167,187.5 68.8333,187.5 8.5,187.5C 5.3449,184.838 3.17823,181.505 2,177.5C 1.33333,121.167 1.33333,64.8333 2,8.5C 3.6107,5.06241 5.77737,2.06241 8.5,-0.5 Z"/></g>
<g><path style="opacity:1" fill="#7a7a7a" d="M 36.5,33.5 C 77.6633,32.5014 118.997,32.168 160.5,32.5C 160.829,47.0097 160.496,61.3431 159.5,75.5C 159.5,61.5 159.5,47.5 159.5,33.5C 118.5,33.5 77.5,33.5 36.5,33.5 Z"/></g>
<g><path style="opacity:1" fill="#f5f5f5" d="M 36.5,33.5 C 77.5,33.5 118.5,33.5 159.5,33.5C 159.5,47.5 159.5,61.5 159.5,75.5C 157.167,77.1667 155.167,79.1667 153.5,81.5C 149.5,84.8333 145.833,88.5 142.5,92.5C 135.167,99.1667 128.167,106.167 121.5,113.5C 111.985,113.827 102.652,113.494 93.5,112.5C 93.5,111.833 93.8333,111.5 94.5,111.5C 96.2624,110.738 97.2624,109.404 97.5,107.5C 101.833,102.5 106.5,97.8333 111.5,93.5C 113.167,92.5 114.5,91.1667 115.5,89.5C 118.573,87.4309 120.906,84.7642 122.5,81.5C 126.5,76.8333 130.833,72.5 135.5,68.5C 136.833,67.8333 137.833,66.8333 138.5,65.5C 139.483,61.7016 139.817,57.7016 139.5,53.5C 111.5,53.5 83.5,53.5 55.5,53.5C 55.5,60.8333 55.5,68.1667 55.5,75.5C 49.1667,81.1667 43.1667,87.1667 37.5,93.5C 36.5029,73.6736 36.1695,53.6736 36.5,33.5 Z"/></g>
<g><path style="opacity:1" fill="#757575" d="M 36.5,33.5 C 36.1695,53.6736 36.5029,73.6736 37.5,93.5C 37.44,94.0431 37.1067,94.3764 36.5,94.5C 35.172,74.0039 35.172,53.6706 36.5,33.5 Z"/></g>
<g><path style="opacity:1" fill="#363636" d="M 138.5,65.5 C 138.167,65.5 137.833,65.5 137.5,65.5C 137.5,61.8333 137.5,58.1667 137.5,54.5C 110.5,54.5 83.5,54.5 56.5,54.5C 56.8245,61.6866 56.4912,68.6866 55.5,75.5C 55.5,68.1667 55.5,60.8333 55.5,53.5C 83.5,53.5 111.5,53.5 139.5,53.5C 139.817,57.7016 139.483,61.7016 138.5,65.5 Z"/></g>
<g><path style="opacity:1" fill="#888888" d="M 137.5,65.5 C 137.833,65.5 138.167,65.5 138.5,65.5C 137.833,66.8333 136.833,67.8333 135.5,68.5C 135.427,66.9731 136.094,65.9731 137.5,65.5 Z"/></g>
<g><path style="opacity:1" fill="#6e6e6e" d="M 96.5,75.5 C 88.6775,74.3439 80.6775,74.1772 72.5,75C 71.9558,75.7172 71.2891,76.2172 70.5,76.5C 70.4142,75.5041 70.7476,74.6708 71.5,74C 80.1858,73.1681 88.8525,73.3348 97.5,74.5C 97.3764,75.1067 97.0431,75.44 96.5,75.5 Z"/></g>
<g><path style="opacity:1" fill="#f7f7f7" d="M 96.5,75.5 C 94.5,77.8333 92.5,80.1667 90.5,82.5C 88.7376,83.2623 87.7376,84.5956 87.5,86.5C 85.5,86.5 84.5,87.5 84.5,89.5C 81.1195,91.8797 78.4528,94.8797 76.5,98.5C 74.1837,99.422 72.517,101.089 71.5,103.5C 67.4564,106.543 64.1231,110.209 61.5,114.5C 60.1667,115.167 59.1667,116.167 58.5,117.5C 57.8826,117.611 57.3826,117.944 57,118.5C 56.5005,124.491 56.3338,130.491 56.5,136.5C 83.6636,137.664 110.997,137.83 138.5,137C 139.056,136.617 139.389,136.117 139.5,135.5C 139.222,126.447 139.556,117.447 140.5,108.5C 141.167,108.167 141.833,107.833 142.5,107.5C 147.774,103.895 152.441,99.562 156.5,94.5C 156.833,93.5 157.5,92.8333 158.5,92.5C 159.497,113.327 159.831,134.327 159.5,155.5C 118.5,155.5 77.5,155.5 36.5,155.5C 36.5,140.833 36.5,126.167 36.5,111.5C 38.8333,108.5 41.5,105.833 44.5,103.5C 49.562,99.4407 53.8953,94.774 57.5,89.5C 61.5,84.8333 65.8333,80.5 70.5,76.5C 71.2891,76.2172 71.9558,75.7172 72.5,75C 80.6775,74.1772 88.6775,74.3439 96.5,75.5 Z"/></g>
<g><path style="opacity:1" fill="#494949" d="M 90.5,82.5 C 90.2624,84.4044 89.2624,85.7377 87.5,86.5C 87.7376,84.5956 88.7376,83.2623 90.5,82.5 Z"/></g>
<g><path style="opacity:1" fill="#9d9d9d" d="M 122.5,81.5 C 120.906,84.7642 118.573,87.4309 115.5,89.5C 117.094,86.2358 119.427,83.5691 122.5,81.5 Z"/></g>
<g><path style="opacity:1" fill="#2e2e2e" d="M 153.5,81.5 C 150.833,86.1667 147.167,89.8333 142.5,92.5C 145.833,88.5 149.5,84.8333 153.5,81.5 Z"/></g>
<g><path style="opacity:1" fill="#0e1e33" d="M -0.5,-0.5 C 2.5,-0.5 5.5,-0.5 8.5,-0.5C 5.77737,2.06241 3.6107,5.06241 2,8.5C 1.33333,64.8333 1.33333,121.167 2,177.5C 3.17823,181.505 5.3449,184.838 8.5,187.5C 5.5,187.5 2.5,187.5 -0.5,187.5C -0.5,124.833 -0.5,62.1667 -0.5,-0.5 Z"/></g>
<g><path style="opacity:1" fill="#616161" d="M 87.5,86.5 C 86.8333,87.8333 85.8333,88.8333 84.5,89.5C 84.5,87.5 85.5,86.5 87.5,86.5 Z"/></g>
<g><path style="opacity:1" fill="#888888" d="M 115.5,89.5 C 114.5,91.1667 113.167,92.5 111.5,93.5C 111.833,91.1667 113.167,89.8333 115.5,89.5 Z"/></g>
<g><path style="opacity:1" fill="#9d9d9d" d="M 57.5,89.5 C 53.8953,94.774 49.562,99.4407 44.5,103.5C 48.1047,98.226 52.438,93.5593 57.5,89.5 Z"/></g>
<g><path style="opacity:1" fill="#414141" d="M 76.5,98.5 C 75.483,100.911 73.8163,102.578 71.5,103.5C 72.517,101.089 74.1837,99.422 76.5,98.5 Z"/></g>
<g><path style="opacity:1" fill="#aeaeae" d="M 156.5,94.5 C 152.441,99.562 147.774,103.895 142.5,107.5C 146.559,102.438 151.226,98.1047 156.5,94.5 Z"/></g>
<g><path style="opacity:1" fill="#424242" d="M 142.5,92.5 C 136.224,100.445 129.224,107.778 121.5,114.5C 121.5,114.167 121.5,113.833 121.5,113.5C 128.167,106.167 135.167,99.1667 142.5,92.5 Z"/></g>
<g><path style="opacity:1" fill="#484848" d="M 71.5,103.5 C 69.2411,106.938 66.7411,110.271 64,113.5C 63.3292,114.252 62.4959,114.586 61.5,114.5C 64.1231,110.209 67.4564,106.543 71.5,103.5 Z"/></g>
<g><path style="opacity:1" fill="#9d9d9d" d="M 97.5,107.5 C 97.2624,109.404 96.2624,110.738 94.5,111.5C 94.7376,109.596 95.7376,108.262 97.5,107.5 Z"/></g>
<g><path style="opacity:1" fill="#a5a5a5" d="M 140.5,108.5 C 139.556,117.447 139.222,126.447 139.5,135.5C 139.167,135.5 138.833,135.5 138.5,135.5C 138.5,127.167 138.5,118.833 138.5,110.5C 138.833,109.5 139.5,108.833 140.5,108.5 Z"/></g>
<g><path style="opacity:1" fill="#363636" d="M 138.5,110.5 C 138.5,118.833 138.5,127.167 138.5,135.5C 138.167,135.5 137.833,135.5 137.5,135.5C 110.661,135.831 83.9948,135.498 57.5,134.5C 84.1667,134.5 110.833,134.5 137.5,134.5C 137.174,126.316 137.508,118.316 138.5,110.5 Z"/></g>
<g><path style="opacity:1" fill="#808181" d="M 158.5,92.5 C 158.56,91.9569 158.893,91.6236 159.5,91.5C 160.5,113.156 160.833,134.823 160.5,156.5C 118.833,156.5 77.1667,156.5 35.5,156.5C 35.1706,141.324 35.5039,126.324 36.5,111.5C 36.5,126.167 36.5,140.833 36.5,155.5C 77.5,155.5 118.5,155.5 159.5,155.5C 159.831,134.327 159.497,113.327 158.5,92.5 Z"/></g>
<g><path style="opacity:1" fill="#e0e0e0" d="M 137.5,135.5 C 137.833,135.5 138.167,135.5 138.5,135.5C 138.833,135.5 139.167,135.5 139.5,135.5C 139.389,136.117 139.056,136.617 138.5,137C 110.997,137.83 83.6636,137.664 56.5,136.5C 83.6718,136.831 110.672,136.498 137.5,135.5 Z"/></g>
<g><path style="opacity:1" fill="#6e6e6e" d="M 58.5,117.5 C 57.5931,123.106 57.2598,128.773 57.5,134.5C 83.9948,135.498 110.661,135.831 137.5,135.5C 110.672,136.498 83.6718,136.831 56.5,136.5C 56.3338,130.491 56.5005,124.491 57,118.5C 57.3826,117.944 57.8826,117.611 58.5,117.5 Z"/></g>
<g><path style="opacity:1" fill="#1e1e1e" d="M 91.5,113.5 C 100.775,115.473 110.442,116.14 120.5,115.5C 110.681,116.494 100.681,116.827 90.5,116.5C 90.2627,115.209 90.596,114.209 91.5,113.5 Z"/></g>
<g><path style="opacity:1" fill="#747474" d="M 92.5,112.5 C 101.44,114.472 110.773,115.139 120.5,114.5C 120.5,114.833 120.5,115.167 120.5,115.5C 110.442,116.14 100.775,115.473 91.5,113.5C 91.5,112.833 91.8333,112.5 92.5,112.5 Z"/></g>
<g><path style="opacity:1" fill="#c9c9c9" d="M 92.5,112.5 C 92.8333,112.5 93.1667,112.5 93.5,112.5C 102.652,113.494 111.985,113.827 121.5,113.5C 121.5,113.833 121.5,114.167 121.5,114.5C 121.167,114.5 120.833,114.5 120.5,114.5C 110.773,115.139 101.44,114.472 92.5,112.5 Z"/></g>
</svg>
